<?xml version="1.0" encoding="UTF-8"?>
<svg version="1.1" xmlns="http://www.w3.org/2000/svg" width="230" height="156">
<path d="M0 0 C1.41691974 -0.00786184 2.83382553 -0.01871272 4.2507019 -0.03230286 C8.07543071 -0.05979432 11.89879599 -0.04354336 15.72348905 -0.01745439 C19.73828214 0.00409552 23.75298539 -0.00953015 27.76780701 -0.01774597 C34.50704354 -0.02588926 41.24573645 -0.00531414 47.98486328 0.03222656 C55.76223018 0.07517612 63.53853218 0.07160929 71.31594235 0.04335898 C78.81733192 0.0172754 86.31832795 0.02516582 93.8197155 0.04805946 C97.00343635 0.05713009 100.18680951 0.05425166 103.37051582 0.0415554 C107.12290683 0.02805962 110.87404429 0.04438876 114.62624741 0.08319283 C116.64992607 0.09718054 118.67374158 0.08191105 120.69740295 0.06561279 C128.54980285 0.18400128 133.20354487 1.24620025 138.79467773 6.88989258 C139.53717773 7.57954102 140.27967773 8.26918945 141.04467773 8.97973633 C141.62217773 9.58946289 142.19967773 10.19918945 142.79467773 10.82739258 C146.09382935 14.22434513 149.5351364 17.36478745 153.13061523 20.44458008 C156.7682052 23.6039892 156.7682052 23.6039892 157.10717773 27.26489258 C156.7719485 31.15355174 156.60910315 32.29107514 153.79467773 34.88989258 C151.12897771 35.29119246 148.87103234 35.43033257 146.20300293 35.39782715 C145.03239531 35.40718709 145.03239531 35.40718709 143.83813906 35.41673613 C141.2146236 35.43273247 138.59202874 35.42003641 135.96850586 35.4074707 C134.09117591 35.41288889 132.2138502 35.42000983 130.33653259 35.42871094 C125.23119417 35.44698336 120.12617821 35.4398606 115.02083397 35.4271946 C109.68506356 35.4170872 104.34932127 35.42645397 99.0135498 35.43273926 C90.05203276 35.44002226 81.09064745 35.43041082 72.12915039 35.41137695 C61.75952043 35.389607 51.39020501 35.39665791 41.02058268 35.41868258 C32.12710322 35.43681796 23.23371862 35.43940401 14.34022665 35.4289279 C9.02429642 35.42268272 3.70851418 35.42188542 -1.60740662 35.43507385 C-6.6044892 35.44660466 -11.60116514 35.4386574 -16.59820366 35.41549683 C-18.43525453 35.41019489 -20.27233946 35.41174875 -22.10937691 35.42054749 C-24.61126687 35.43142836 -27.111842 35.41783108 -29.61364746 35.39782715 C-30.3460337 35.40675004 -31.07841994 35.41567292 -31.83299971 35.4248662 C-35.04459899 35.37482501 -36.75511681 35.31606209 -39.13707733 33.06127167 C-40.83734749 29.60519999 -40.90132367 27.70795742 -40.20532227 23.88989258 C-37.91015568 20.82660103 -35.14265265 18.40145987 -32.26782227 15.88989258 C-31.53241211 15.21700195 -30.79700195 14.54411133 -30.03930664 13.85083008 C-27.79218747 11.8176288 -25.53346409 9.83041431 -23.20532227 7.88989258 C-22.63722084 7.32554158 -22.06911942 6.76119059 -21.4838028 6.17973804 C-14.735774 0.03445375 -8.85898039 -0.10637187 0 0 Z M32.79467773 15.88989258 C31.80467773 17.86989258 30.81467773 19.84989258 29.79467773 21.88989258 C48.60467773 21.88989258 67.41467773 21.88989258 86.79467773 21.88989258 C85.34178787 17.30569628 85.34178787 17.30569628 83.79467773 15.88989258 C82.19856792 15.79655552 80.59834345 15.77243885 78.99951172 15.77636719 C77.46803749 15.77648048 77.46803749 15.77648048 75.90562439 15.77659607 C74.79522293 15.78175735 73.68482147 15.78691864 72.54077148 15.79223633 C70.84489647 15.79435875 70.84489647 15.79435875 69.11476135 15.79652405 C65.48720708 15.80214239 61.8597135 15.814698 58.23217773 15.82739258 C55.77970466 15.83240522 53.32723063 15.83696853 50.87475586 15.84106445 C44.84804228 15.85211778 38.82136434 15.86887374 32.79467773 15.88989258 Z M44.79467773 24.88989258 C45.12467773 25.87989258 45.45467773 26.86989258 45.79467773 27.88989258 C54.37467773 27.88989258 62.95467773 27.88989258 71.79467773 27.88989258 C71.46467773 26.89989258 71.13467773 25.90989258 70.79467773 24.88989258 C62.21467773 24.88989258 53.63467773 24.88989258 44.79467773 24.88989258 Z " fill="#B969D4" transform="translate(53.205322265625,112.110107421875)"/>
<path d="M0 0 C1.20301254 -0.00845947 2.40602509 -0.01691895 3.64549255 -0.02563477 C4.98050062 -0.01980172 6.31550735 -0.0136572 7.6505127 -0.00723267 C9.05494088 -0.01129727 10.45936587 -0.01663853 11.86378479 -0.02316284 C15.67988211 -0.03685563 19.4957365 -0.03152982 23.31183815 -0.02202559 C27.30229988 -0.0144391 31.29274059 -0.02147178 35.28320312 -0.02618408 C41.98494203 -0.03164459 48.6865818 -0.02444231 55.38830566 -0.01016235 C63.14039348 0.00616478 70.89224461 0.00087647 78.64432669 -0.01564157 C85.29577968 -0.02924806 91.94716134 -0.03118022 98.59862375 -0.02332556 C102.57314847 -0.01864441 106.54756187 -0.01803625 110.52207947 -0.02793503 C114.25841306 -0.0365903 117.99444099 -0.03060947 121.7307415 -0.01325226 C123.10337758 -0.00927966 124.47603931 -0.01043467 125.84866524 -0.01704025 C127.7194948 -0.02521446 129.59038047 -0.0131553 131.46118164 0 C133.03298565 0.00169662 133.03298565 0.00169662 134.63654327 0.00342751 C137.23059082 0.38095093 137.23059082 0.38095093 139.06694889 1.67230034 C141.12672014 4.69679548 140.65413822 8.30699949 140.63464355 11.84384155 C140.64150681 12.70752853 140.64837006 13.57121552 140.65544128 14.46107483 C140.67376365 17.31995009 140.66986443 20.17827948 140.66418457 23.03720093 C140.66874345 25.02113016 140.67404814 27.00505782 140.68006897 28.98898315 C140.68901053 33.14851291 140.68656469 37.30785077 140.67663574 41.46737671 C140.66513915 46.80433913 140.68536291 52.14064061 140.71455288 57.47751617 C140.73287564 61.57469914 140.73263037 65.67172252 140.72691536 69.76893616 C140.72676169 71.73697335 140.73284325 73.70502105 140.74520683 75.67301941 C140.76004276 78.42179162 140.74949511 81.16932747 140.7322998 83.9180603 C140.74680176 85.14313545 140.74680176 85.14313545 140.76159668 86.39295959 C140.68910764 91.91136873 140.68910764 91.91136873 138.56220341 94.08960152 C135.65571391 95.699343 133.74052063 95.7582626 130.42358398 95.76190186 C128.64441338 95.77459106 128.64441338 95.77459106 126.82929993 95.78753662 C125.53151108 95.78146393 124.23372223 95.77539124 122.89660645 95.76913452 C121.5133574 95.77320049 120.1301116 95.77854251 118.74687195 95.7850647 C114.99274673 95.7987413 111.23886885 95.79343834 107.4847393 95.78392744 C103.55614429 95.77633259 99.62757046 95.78337597 95.69897461 95.78808594 C89.10156451 95.793544 82.50425516 95.78635057 75.90686035 95.77206421 C68.2791704 95.75573754 60.65172101 95.76102602 53.02403688 95.77754343 C46.47530702 95.79115687 39.92664958 95.79307866 33.37791014 95.78522742 C29.46652502 95.7805501 25.55525298 95.7799276 21.64387512 95.78983688 C17.96661937 95.79850226 14.2896738 95.79249278 10.61245155 95.77515411 C8.61893261 95.7692943 6.62538744 95.77820849 4.63188171 95.78753662 C3.44576797 95.77907715 2.25965424 95.77061768 1.03759766 95.76190186 C0.00669762 95.76077078 -1.02420242 95.7596397 -2.08634186 95.75847435 C-5.20076495 95.32025662 -6.57975891 94.623444 -8.76940918 92.38095093 C-9.16618443 89.43654925 -9.30599329 86.86419112 -9.27111816 83.9180603 C-9.27652115 83.05437332 -9.28192413 82.19068634 -9.28749084 81.30082703 C-9.30001297 78.44177128 -9.28346416 75.58371569 -9.26550293 72.72470093 C-9.26565784 70.74077298 -9.26714544 68.75684472 -9.26991272 66.7729187 C-9.27129827 62.61331824 -9.25871244 58.45406193 -9.23596191 54.29452515 C-9.20757691 48.95763542 -9.21031256 43.62131774 -9.22305202 38.28438568 C-9.23000077 34.18719582 -9.22222912 30.09013862 -9.209795 25.9929657 C-9.20527267 24.02494312 -9.2049505 22.05690634 -9.2088604 20.08888245 C-9.21176473 17.34023758 -9.1953031 14.59238625 -9.17346191 11.84384155 C-9.17796356 11.02712479 -9.18246521 10.21040802 -9.18710327 9.36894226 C-9.11458762 3.88779872 -9.11458762 3.88779872 -7.60576725 1.67230034 C-5.01627493 -0.14866227 -3.15210887 0.00340241 0 0 Z M-0.76940918 9.38095093 C-0.79003418 21.90032593 -0.81065918 34.41970093 -0.83190918 47.31845093 C-0.84101318 51.2770813 -0.85011719 55.23571167 -0.85949707 59.31430054 C-0.86284071 62.85092882 -0.86284071 62.85092882 -0.86485291 66.38755798 C-0.86639236 67.9675169 -0.86991732 69.54747461 -0.87498474 71.12742615 C-0.88226298 73.51525933 -0.88331657 75.90302049 -0.88293457 78.29086304 C-0.88653268 78.99926047 -0.89013079 79.70765791 -0.89383793 80.43752193 C-1.1655718 83.68922259 -1.1655718 83.68922259 0.23059082 86.38095093 C1.9388477 86.47717129 3.65111196 86.50282721 5.36207581 86.50120544 C6.4741188 86.50258011 7.5861618 86.50395477 8.73190308 86.50537109 C9.96260529 86.50177582 11.1933075 86.49818054 12.46130371 86.49447632 C14.39272972 86.49469536 14.39272972 86.49469536 16.36317444 86.49491882 C19.90433842 86.49520679 23.44546881 86.48931029 26.98662496 86.48234487 C30.6835407 86.47611109 34.38045713 86.47550751 38.07737732 86.47431946 C45.08262981 86.47120621 52.08786677 86.46299291 59.09311241 86.45296997 C68.55604686 86.43972332 78.01898554 86.43430887 87.48192692 86.42846775 C102.39815986 86.41905302 117.31436003 86.39913406 132.23059082 86.38095093 C132.23059082 60.97095093 132.23059082 35.56095093 132.23059082 9.38095093 C88.34059082 9.38095093 44.45059082 9.38095093 -0.76940918 9.38095093 Z " fill="#B76AD0" transform="translate(45.7694091796875,16.619049072265625)"/>
<path d="M0 0 C9.20540004 -0.06946382 18.41071008 -0.12279271 27.61631489 -0.15543652 C31.89070699 -0.17110272 36.16491998 -0.1923582 40.43920898 -0.22631836 C44.56297253 -0.25887809 48.68656363 -0.27684582 52.81044579 -0.28463173 C54.38495792 -0.29018136 55.95946045 -0.30101831 57.53389931 -0.31719017 C59.73675672 -0.33892005 61.93889862 -0.34196888 64.1418457 -0.34057617 C66.02381401 -0.35056892 66.02381401 -0.35056892 67.94380188 -0.36076355 C71 0 71 0 72.90338135 0.99235535 C74.70967316 4.29924064 74.42430542 7.78852272 74.40405273 11.46289062 C74.41091599 12.32657761 74.41777924 13.19026459 74.42485046 14.0801239 C74.44317283 16.93899916 74.43927361 19.79732855 74.43359375 22.65625 C74.43815263 24.64017924 74.44345732 26.62410689 74.44947815 28.60803223 C74.45841971 32.76756198 74.45597387 36.92689984 74.44604492 41.08642578 C74.43454833 46.4233882 74.45477209 51.75968968 74.48396206 57.09656525 C74.50228482 61.19374821 74.50203955 65.2907716 74.49632454 69.38798523 C74.49617087 71.35602242 74.50225243 73.32407012 74.51461601 75.29206848 C74.52945194 78.04084069 74.51890429 80.78837654 74.50170898 83.53710938 C74.51621094 84.76218452 74.51621094 84.76218452 74.53100586 86.01200867 C74.48935009 89.18315791 74.43560538 91.41288301 72.51118469 94.00665283 C68.81054947 95.47050992 65.23700955 95.40025833 61.31933594 95.35644531 C60.00637291 95.35951187 60.00637291 95.35951187 58.66688538 95.36264038 C55.77250284 95.36564881 52.87868991 95.34716289 49.984375 95.328125 C47.96901592 95.32506614 45.95365472 95.32319098 43.93829346 95.32244873 C39.71154705 95.31784455 35.48499103 95.30341875 31.25830078 95.28125 C25.85370007 95.25304026 20.44924971 95.24204544 15.04458237 95.2375679 C10.88031525 95.23339869 6.71607819 95.22356757 2.55182648 95.21169281 C0.56002287 95.20601372 -1.43178357 95.20124734 -3.42359161 95.19742584 C-6.21636436 95.19050785 -9.00902235 95.17684786 -11.80175781 95.16113281 C-12.61762863 95.16001495 -13.43349945 95.15889709 -14.27409363 95.15774536 C-19.26851113 95.12075137 -24.05032567 94.66285848 -29 94 C-30.52537026 93.92605283 -32.05292434 93.88157989 -33.58007812 93.88647461 C-34.78041687 93.88658791 -34.78041687 93.88658791 -36.00500488 93.88670349 C-37.25549622 93.89444542 -37.25549622 93.89444542 -38.53125 93.90234375 C-39.40777222 93.9037587 -40.28429443 93.90517365 -41.18737793 93.90663147 C-43.95828821 93.91218232 -46.72911457 93.92472539 -49.5 93.9375 C-51.39062382 93.94252136 -53.28124893 93.94708315 -55.171875 93.95117188 C-59.78128183 93.9621356 -64.39062673 93.97936575 -69 94 C-69.33 92.68 -69.66 91.36 -70 90 C-65.07219431 87.38143729 -60.23249107 87.76267008 -54.80859375 87.83984375 C-53.82633316 87.84504532 -52.84407257 87.85024689 -51.83204651 87.85560608 C-48.70037896 87.873384 -45.56904181 87.90455159 -42.4375 87.9375 C-39.30242011 87.96514197 -36.16738733 87.98985072 -33.03224182 88.00868225 C-31.08341784 88.02091234 -29.13461841 88.03848946 -27.18589783 88.06199646 C-26.30140457 88.06852737 -25.41691132 88.07505829 -24.50561523 88.08178711 C-23.34243019 88.09416664 -23.34243019 88.09416664 -22.15574646 88.10679626 C-20.03410926 88.07404651 -20.03410926 88.07404651 -18.17152405 87.52966309 C-7.38386172 84.89841131 4.96407189 85.85917227 16 85.90234375 C17.92199219 85.90385437 17.92199219 85.90385437 19.8828125 85.90539551 C24.588551 85.91055776 29.29427657 85.9245179 34 85.9375 C44.56 85.958125 55.12 85.97875 66 86 C66 60.26 66 34.52 66 8 C60.72 8 55.44 8 50 8 C50 7.67 50 7.34 50 7 C54.95 6.67 59.9 6.34 65 6 C64.67 5.01 64.34 4.02 64 3 C63.43418213 2.98969254 62.86836426 2.97938507 62.28540039 2.96876526 C56.31387998 2.85928489 50.3424686 2.7448311 44.37109375 2.62768555 C42.15236731 2.58478288 39.93361721 2.54308384 37.71484375 2.50268555 C25.11818794 2.27246688 12.565274 1.95386534 0 1 C0 0.67 0 0.34 0 0 Z " fill="#B26BD3" transform="translate(112,17)"/>
<path d="M0 0 C5.28 0 10.56 0 16 0 C19.3 10.56 22.6 21.12 26 32 C29.17876426 24.14903872 29.17876426 24.14903872 31.921875 16.2109375 C32.22480469 15.25058594 32.52773437 14.29023437 32.83984375 13.30078125 C33.14019531 12.33527344 33.44054687 11.36976562 33.75 10.375 C34.22373047 8.86873047 34.22373047 8.86873047 34.70703125 7.33203125 C35.47480845 4.88910378 36.23790272 2.44470533 37 0 C42.28 0 47.56 0 53 0 C53 15.84 53 31.68 53 48 C49.37 48 45.74 48 42 48 C41.67 38.76 41.34 29.52 41 20 C40.04287109 22.90619141 40.04287109 22.90619141 39.06640625 25.87109375 C38.44772572 27.74103826 37.82902433 29.61097595 37.2097168 31.48071289 C36.77894911 32.78309049 36.34925775 34.08582458 35.9206543 35.38891602 C35.30538637 37.25890373 34.68595941 39.12752142 34.06640625 40.99609375 C33.69459229 42.12200928 33.32277832 43.2479248 32.93969727 44.40795898 C32 47 32 47 31 48 C27.37 48 23.74 48 20 48 C17.36 39.42 14.72 30.84 12 22 C11.67 30.58 11.34 39.16 11 48 C7.37 48 3.74 48 0 48 C0 32.16 0 16.32 0 0 Z " fill="#B46AD3" transform="translate(88,43)"/>
<path d="M0 0 C0.928125 0.165 1.85625 0.33 2.8125 0.5 C5.74559187 0.96009284 7.25741623 0.94935592 10 0 C10 0.66 10 1.32 10 2 C10.6705542 1.83250244 11.3411084 1.66500488 12.03198242 1.49243164 C15.59251115 0.90169491 18.88071538 0.9917388 22.48828125 1.12109375 C23.19147995 1.14470474 23.89467865 1.16831573 24.6191864 1.19264221 C26.85052072 1.2688093 29.081466 1.35303307 31.3125 1.4375 C32.83136159 1.49076782 34.3502418 1.54350785 35.86914062 1.59570312 C39.57966209 1.7243599 43.28987824 1.86024057 47 2 C47 2.33 47 2.66 47 3 C33.8 3 20.6 3 7 3 C7.33 6.63 7.66 10.26 8 14 C8.07627734 16.40428006 8.11825129 18.81009109 8.11352539 21.21557617 C8.11340454 22.53392456 8.11328369 23.85227295 8.11315918 25.21057129 C8.10812754 26.57137095 8.10296121 27.93217012 8.09765625 29.29296875 C8.09664917 30.55967407 8.09564209 31.82637939 8.09460449 33.13146973 C8.08941304 37.8168225 8.0754521 42.50216226 8.0625 47.1875 C8.041875 57.685625 8.02125 68.18375 8 79 C40.67 79.495 40.67 79.495 74 80 C74 80.33 74 80.66 74 81 C72.94941406 81.06058594 71.89882812 81.12117188 70.81640625 81.18359375 C69.39843032 81.26810887 67.98046198 81.35275116 66.5625 81.4375 C65.87478516 81.47681641 65.18707031 81.51613281 64.47851562 81.55664062 C60.83882697 81.77671482 57.23618259 82.07882383 53.6171875 82.52734375 C48.59326128 83.10588271 43.61520845 83.15025903 38.5625 83.125 C37.61616699 83.12306641 36.66983398 83.12113281 35.69482422 83.11914062 C26.7755731 83.0654012 17.89625361 82.61504963 9 82 C8.67 82.99 8.34 83.98 8 85 C7.01 85 6.02 85 5 85 C6.97828234 87.4228299 6.97828234 87.4228299 10.80371094 87.21118164 C12.44733826 87.20407385 14.09094038 87.18630883 15.734375 87.16015625 C16.60515686 87.15495468 17.47593872 87.14975311 18.37310791 87.14439392 C21.16557276 87.12654396 23.95767497 87.09539891 26.75 87.0625 C29.5280088 87.0348162 32.30596156 87.01007349 35.08404541 86.99131775 C36.81370809 86.97913885 38.54334377 86.96161319 40.27288818 86.93800354 C44.64077075 86.9020727 48.69767021 87.11445592 53 88 C53 88.33 53 88.66 53 89 C45.9525442 89.07602812 38.90519406 89.12859061 31.85742188 89.16479492 C29.45959521 89.17988682 27.06179617 89.2003625 24.6640625 89.22631836 C21.21868067 89.26268311 17.77366363 89.27972248 14.328125 89.29296875 C13.25508118 89.30845261 12.18203735 89.32393646 11.07647705 89.33988953 C10.07574158 89.34011612 9.0750061 89.34034271 8.04394531 89.34057617 C7.16458313 89.34723801 6.28522095 89.35389984 5.37921143 89.36076355 C2.28879888 88.89215946 1.05871783 88.38606161 -1 86 C-1.38662122 83.16148785 -1.51643903 80.71090727 -1.4699707 77.87255859 C-1.4721611 77.04467331 -1.4743515 76.21678802 -1.47660828 75.36381531 C-1.47892155 72.6249509 -1.45265569 69.88715873 -1.42578125 67.1484375 C-1.42085934 65.24940329 -1.41755916 63.35036425 -1.41581726 61.45132446 C-1.40817319 57.47162386 -1.38759747 53.49228238 -1.35668945 49.51269531 C-1.31706053 44.39995312 -1.29907301 39.28744454 -1.28938007 34.17456627 C-1.27942819 29.31165807 -1.2595208 24.44880756 -1.23828125 19.5859375 C-1.2348855 18.65195507 -1.23148975 17.71797264 -1.2279911 16.75568771 C-1.21646924 14.12660522 -1.19795808 11.49767447 -1.17700195 8.86865234 C-1.17431305 8.08214798 -1.17162415 7.29564362 -1.16885376 6.48530579 C-1.11490179 1.11490179 -1.11490179 1.11490179 0 0 Z " fill="#FB62B2" transform="translate(38,23)"/>
<path d="M0 0 C12.37853425 -0.1391875 24.75688151 -0.24571672 37.13603973 -0.31087303 C42.88459468 -0.34214934 48.63261316 -0.3845557 54.38085938 -0.45263672 C59.93112948 -0.51795953 65.48088447 -0.55373388 71.0315094 -0.56926346 C73.14620571 -0.58032649 75.26087469 -0.60193049 77.37535095 -0.63438034 C80.34394642 -0.67811484 83.31042968 -0.68392693 86.27929688 -0.68115234 C87.14820557 -0.702724 88.01711426 -0.72429565 88.91235352 -0.746521 C96.71397384 -0.66792903 100.73359982 2.966104 106.25 8.08984375 C107.11625 9.00443359 107.11625 9.00443359 108 9.9375 C111.29915162 13.33445255 114.74045867 16.47489487 118.3359375 19.5546875 C121.97352747 22.71409662 121.97352747 22.71409662 122.3125 26.375 C121.97976958 30.23467284 121.72079452 31.36247301 119 34 C116.27784729 34.48774719 116.27784729 34.48774719 112.93188477 34.4699707 C111.67125717 34.47285599 110.41062958 34.47574127 109.11180115 34.47871399 C107.72166368 34.46153544 106.33153208 34.44387688 104.94140625 34.42578125 C103.4945976 34.42118011 102.04778275 34.41825874 100.60096741 34.41691589 C96.7225025 34.40805163 92.84463704 34.37395785 88.96637726 34.33456421 C85.77145685 34.30523934 82.57654469 34.29067178 79.38152695 34.2764225 C54.58271415 34.16474386 29.78722024 33.77705476 5 33 C5 32.67 5 32.34 5 32 C7.97 31.67 10.94 31.34 14 31 C14 30.34 14 29.68 14 29 C13.34 28.34 12.68 27.68 12 27 C20.25 27 28.5 27 37 27 C36.505 26.01 36.505 26.01 36 25 C23.13 24.505 23.13 24.505 10 24 C10 23.67 10 23.34 10 23 C8.86820313 22.93941406 7.73640625 22.87882812 6.5703125 22.81640625 C5.08852855 22.73200083 3.6067584 22.64735283 2.125 22.5625 C1.37863281 22.52318359 0.63226563 22.48386719 -0.13671875 22.44335938 C-5.7734375 22.11328125 -5.7734375 22.11328125 -8 21 C-7.63869686 18.38055225 -7.23896766 17.22592666 -5.2913208 15.38456726 C-2.49634159 13.69565635 -0.83897931 13.63664267 2.41113281 13.65942383 C4.03236053 13.65976372 4.03236053 13.65976372 5.68634033 13.66011047 C6.84687927 13.67559433 8.00741821 13.69107819 9.203125 13.70703125 C10.39605164 13.71127609 11.58897827 13.71552094 12.8180542 13.71989441 C16.62893219 13.73668977 20.43928178 13.77434482 24.25 13.8125 C26.8333257 13.82754567 29.41665968 13.84123428 32 13.85351562 C38.33351368 13.88659619 44.66671909 13.93680476 51 14 C51.495 15.485 51.495 15.485 52 17 C53.32 17 54.64 17 56 17 C56.05472088 18.39538254 56.09311538 19.79140897 56.125 21.1875 C56.14820313 21.96480469 56.17140625 22.74210937 56.1953125 23.54296875 C55.97266566 26.343866 55.08454157 28.42374468 54 31 C62.30998987 31.06942922 70.6198591 31.12277489 78.93006706 31.15543652 C82.78860575 31.17111039 86.6469464 31.19237955 90.50537109 31.22631836 C94.22713296 31.25885119 97.94870403 31.27684004 101.67059708 31.28463173 C103.0924289 31.29018625 104.51424996 31.30103261 105.93600082 31.31719017 C107.92321387 31.33888117 109.91061783 31.34022469 111.89794922 31.34057617 C113.59671707 31.35056892 113.59671707 31.35056892 115.32980347 31.36076355 C116.65155075 31.18218559 116.65155075 31.18218559 118 31 C120.33391203 28.21885944 120.33391203 28.21885944 119.625 25.3125 C119.315625 24.1678125 119.315625 24.1678125 119 23 C117.02 23 115.04 23 113 23 C113.495 21.515 113.495 21.515 114 20 C113.505 18.02 113.505 18.02 113 16 C110.36 15.34 107.72 14.68 105 14 C104.979375 13.2575 104.95875 12.515 104.9375 11.75 C103.85412074 8.57208751 103.25525588 8.27248768 100.4375 6.6875 C99.303125 6.130625 98.16875 5.57375 97 5 C97 4.34 97 3.68 97 3 C64.99 2.34 32.98 1.68 0 1 C0 0.67 0 0.34 0 0 Z M-2 15 C-2.99 16.98 -3.98 18.96 -5 21 C13.81 21 32.62 21 52 21 C50.54711014 16.4158037 50.54711014 16.4158037 49 15 C47.40389018 14.90666295 45.80366572 14.88254628 44.20483398 14.88647461 C42.67335976 14.88658791 42.67335976 14.88658791 41.11094666 14.88670349 C40.0005452 14.89186478 38.89014374 14.89702606 37.74609375 14.90234375 C36.05021873 14.90446617 36.05021873 14.90446617 34.32008362 14.90663147 C30.69252935 14.91224981 27.06503576 14.92480542 23.4375 14.9375 C20.98502693 14.94251264 18.5325529 14.94707595 16.08007812 14.95117188 C10.05336455 14.9622252 4.02668661 14.97898116 -2 15 Z " fill="#AB69D3" transform="translate(88,113)"/>
<path d="M0 0 C9.20540004 -0.06946382 18.41071008 -0.12279271 27.61631489 -0.15543652 C31.89070699 -0.17110272 36.16491998 -0.1923582 40.43920898 -0.22631836 C44.56297253 -0.25887809 48.68656363 -0.27684582 52.81044579 -0.28463173 C54.38495792 -0.29018136 55.95946045 -0.30101831 57.53389931 -0.31719017 C59.73675672 -0.33892005 61.93889862 -0.34196888 64.1418457 -0.34057617 C66.02381401 -0.35056892 66.02381401 -0.35056892 67.94380188 -0.36076355 C71 0 71 0 72.66762352 1.28966713 C74.96942249 4.24441941 74.40588964 7.88442323 74.37231445 11.47875977 C74.37596512 12.34405304 74.37961578 13.20934631 74.38337708 14.1008606 C74.39149142 16.96457467 74.37786625 19.82772454 74.36328125 22.69140625 C74.3627628 24.67772928 74.36327992 26.66405284 74.36479187 28.65037537 C74.36470211 32.81411392 74.35426404 36.977659 74.33618164 41.14135742 C74.31347964 46.48721966 74.31295263 51.83279944 74.31969929 57.17869663 C74.32303515 61.28011093 74.31641665 65.38146044 74.30657005 69.48286247 C74.30271226 71.45450438 74.30157222 73.42615349 74.3031559 75.39779854 C74.30352536 78.14888458 74.29094039 80.89960367 74.2746582 83.65063477 C74.27713562 84.47094681 74.27961304 85.29125885 74.28216553 86.13642883 C74.22874241 91.77125759 74.22874241 91.77125759 72 94 C68.875 94.125 68.875 94.125 66 94 C65.67 93.01 65.34 92.02 65 91 C65.66 91 66.32 91 67 91 C67 91.66 67 92.32 67 93 C67.66 93 68.32 93 69 93 C68.67 92.01 68.34 91.02 68 90 C67.01 90 66.02 90 65 90 C64.67 89.34 64.34 88.68 64 88 C63.030625 88.08378906 62.06125 88.16757813 61.0625 88.25390625 C51.25821516 89.0244895 41.79283118 88.84645482 32 88 C32 87.67 32 87.34 32 87 C43.22 86.67 54.44 86.34 66 86 C66 60.26 66 34.52 66 8 C60.72 8 55.44 8 50 8 C50 7.67 50 7.34 50 7 C54.95 6.67 59.9 6.34 65 6 C64.505 4.515 64.505 4.515 64 3 C63.43418213 2.98969254 62.86836426 2.97938507 62.28540039 2.96876526 C56.31387998 2.85928489 50.3424686 2.7448311 44.37109375 2.62768555 C42.15236731 2.58478288 39.93361721 2.54308384 37.71484375 2.50268555 C25.11818794 2.27246688 12.565274 1.95386534 0 1 C0 0.67 0 0.34 0 0 Z " fill="#7666FB" transform="translate(112,17)"/>
<path d="M0 0 C5.28 0 10.56 0 16 0 C17.42679065 4.51986895 18.85184733 9.04020826 20.27246094 13.56201172 C20.75646219 15.1007459 21.2414841 16.63915941 21.72753906 18.17724609 C22.42520154 20.38556141 23.11920929 22.59499638 23.8125 24.8046875 C24.14060669 25.83914505 24.14060669 25.83914505 24.4753418 26.89450073 C26 31.77225659 26 31.77225659 26 34 C26.66 34 27.32 34 28 34 C28 34.66 28 35.32 28 36 C26.7934375 36.3403125 26.7934375 36.3403125 25.5625 36.6875 C24.716875 37.120625 23.87125 37.55375 23 38 C22.10613836 40.54775306 22.10613836 40.54775306 22 43 C19.77174356 40.77174356 19.30760631 39.34238372 18.375 36.375 C18.11460938 35.55773437 17.85421875 34.74046875 17.5859375 33.8984375 C17.39257812 33.27195313 17.19921875 32.64546875 17 32 C16.34 32 15.68 32 15 32 C14.01 28.7 13.02 25.4 12 22 C11.67 30.58 11.34 39.16 11 48 C7.37 48 3.74 48 0 48 C0 32.16 0 16.32 0 0 Z " fill="#D56BBF" transform="translate(88,43)"/>
<path d="M0 0 C1.10233444 10.09624014 1.11736516 20.11133216 1.0625 30.25 C1.05747149 31.88150903 1.05291099 33.51301958 1.04882812 35.14453125 C1.03793757 39.0963923 1.02074866 43.04817892 1 47 C-5.15234375 47.09765625 -5.15234375 47.09765625 -7 47 C-8 46 -8 46 -8.09765625 43.51904297 C-8.08605469 42.43768066 -8.07445312 41.35631836 -8.0625 40.2421875 C-8.05476562 39.05882812 -8.04703125 37.87546875 -8.0390625 36.65625 C-8.01326293 34.15885165 -7.98722585 31.66145575 -7.9609375 29.1640625 C-7.92307466 23.33318475 -7.91030312 17.73793513 -9 12 C-10.32 11.67 -11.64 11.34 -13 11 C-14.010818 7.37790217 -14.27088303 5.59336283 -12.6875 2.125 C-8.64692244 -1.06987528 -4.94503475 -0.3512986 0 0 Z " fill="#A068E2" transform="translate(139,44)"/>
<path d="M0 0 C1.07487167 0.00990463 2.14974335 0.01980927 3.25718689 0.03001404 C6.66117836 0.06892927 10.06184146 0.15671224 13.46484375 0.24609375 C15.78445835 0.28123697 18.10412394 0.31317067 20.42382812 0.34179688 C26.08445231 0.41861526 31.74316021 0.5354722 37.40234375 0.68359375 C37.40234375 1.01359375 37.40234375 1.34359375 37.40234375 1.68359375 C36.2421875 1.74417969 35.08203125 1.80476563 33.88671875 1.8671875 C32.30857152 1.95140732 30.73044811 2.03607434 29.15234375 2.12109375 C27.91206421 2.18768188 27.91206421 2.18768188 26.64672852 2.25561523 C22.19956831 2.50212611 17.77338054 2.8120412 13.33984375 3.24609375 C9.90296068 3.57295815 6.54880396 3.69264556 3.1015625 3.60546875 C1.96763062 3.58117798 1.96763062 3.58117798 0.81079102 3.55639648 C-0.67240199 3.51722738 -2.15527223 3.46044218 -3.63696289 3.38305664 C-8.84000499 3.24550706 -11.56633915 4.46821039 -15.59765625 7.68359375 C-16.19578125 8.15796875 -16.79390625 8.63234375 -17.41015625 9.12109375 C-18.99387584 11.20493532 -19.25146094 13.12174847 -19.59765625 15.68359375 C-21.24765625 15.68359375 -22.89765625 15.68359375 -24.59765625 15.68359375 C-25.80393633 18.01573523 -26.76313005 20.18001514 -27.59765625 22.68359375 C-30.66015625 23.87109375 -30.66015625 23.87109375 -33.59765625 24.68359375 C-34.59982689 28.26687128 -34.59982689 28.26687128 -33.59765625 31.68359375 C-32.31601593 31.69905495 -32.31601593 31.69905495 -31.00848389 31.71482849 C-20.12149652 31.84672129 -9.23455847 31.98234948 1.65234375 32.12109375 C2.51735001 32.13211498 3.38235626 32.14313622 4.27357483 32.15449142 C31.65421234 32.5046788 59.02885969 32.94995418 86.40234375 33.68359375 C86.40234375 34.01359375 86.40234375 34.34359375 86.40234375 34.68359375 C70.67775955 34.7769827 54.95325004 34.8475461 39.22845745 34.89084244 C31.92735722 34.91147891 24.62642917 34.93961992 17.32543945 34.98535156 C10.96282409 35.0251865 4.6003334 35.05101868 -1.76240319 35.05994773 C-5.13234557 35.06516827 -8.50193123 35.07746007 -11.87175941 35.10651398 C-15.63127716 35.13541067 -19.39004788 35.13955536 -23.1496582 35.13769531 C-24.27031174 35.15207642 -25.39096527 35.16645752 -26.545578 35.18127441 C-28.07893295 35.17302643 -28.07893295 35.17302643 -29.64326477 35.16461182 C-30.532795 35.16829899 -31.42232523 35.17198616 -32.33881092 35.17578506 C-34.59765625 34.68359375 -34.59765625 34.68359375 -36.36458111 32.85665512 C-38.30418743 29.43846637 -38.30472883 27.5623919 -37.59765625 23.68359375 C-35.30248966 20.6203022 -32.53498663 18.19516105 -29.66015625 15.68359375 C-28.92474609 15.01070312 -28.18933594 14.3378125 -27.43164062 13.64453125 C-25.18452145 11.61132997 -22.92579807 9.62411548 -20.59765625 7.68359375 C-19.97592026 7.09613876 -19.35418427 6.50868378 -18.71360779 5.90342712 C-12.57835224 0.48703907 -8.03595211 -0.28314921 0 0 Z " fill="#C875B0" transform="translate(50.59765625,112.31640625)"/>
<path d="M0 0 C12.37853425 -0.1391875 24.75688151 -0.24571672 37.13603973 -0.31087303 C42.88459468 -0.34214934 48.63261316 -0.3845557 54.38085938 -0.45263672 C59.93112948 -0.51795953 65.48088447 -0.55373388 71.0315094 -0.56926346 C73.14620571 -0.58032649 75.26087469 -0.60193049 77.37535095 -0.63438034 C80.34394642 -0.67811484 83.31042968 -0.68392693 86.27929688 -0.68115234 C87.14820557 -0.702724 88.01711426 -0.72429565 88.91235352 -0.746521 C96.71397384 -0.66792903 100.73359982 2.966104 106.25 8.08984375 C107.11625 9.00443359 107.11625 9.00443359 108 9.9375 C111.29915162 13.33445255 114.74045867 16.47489487 118.3359375 19.5546875 C121.97352747 22.71409662 121.97352747 22.71409662 122.3125 26.375 C121.97881198 30.24578098 121.76456465 31.38292874 119 34 C115.98176575 34.48101807 115.98176575 34.48101807 112.23364258 34.45410156 C111.20886055 34.45497772 111.20886055 34.45497772 110.16337585 34.45587158 C107.90657629 34.45308615 105.65109984 34.42197557 103.39453125 34.390625 C101.82940899 34.38316417 100.26427739 34.37747049 98.69914246 34.37347412 C94.58072088 34.35820515 90.46286404 34.31891311 86.34466553 34.2746582 C82.14196411 34.23373234 77.93917139 34.21546889 73.73632812 34.1953125 C65.49062632 34.1524195 57.24538342 34.0841536 49 34 C49 33.67 49 33.34 49 33 C56.66753141 32.73743463 64.33511794 32.47653261 72.00277615 32.21769714 C75.56397177 32.09743154 79.1251468 31.97661396 82.6862793 31.85449219 C86.78949469 31.71380587 90.8927904 31.57559729 94.99609375 31.4375 C96.26206894 31.39375244 97.52804413 31.35000488 98.8323822 31.30493164 C100.63323021 31.24486938 100.63323021 31.24486938 102.47045898 31.18359375 C103.59370575 31.14476074 104.71695251 31.10592773 105.87423706 31.06591797 C108.67756618 31.00679968 111.44892335 31.06697302 114.25024414 31.16015625 C115.48766357 31.10730469 116.72508301 31.05445313 118 31 C120.33391203 28.21885944 120.33391203 28.21885944 119.625 25.3125 C119.315625 24.1678125 119.315625 24.1678125 119 23 C117.02 23 115.04 23 113 23 C113.495 21.515 113.495 21.515 114 20 C113.505 18.02 113.505 18.02 113 16 C110.36 15.34 107.72 14.68 105 14 C104.979375 13.2575 104.95875 12.515 104.9375 11.75 C103.85412074 8.57208751 103.25525588 8.27248768 100.4375 6.6875 C99.303125 6.130625 98.16875 5.57375 97 5 C97 4.34 97 3.68 97 3 C64.99 2.34 32.98 1.68 0 1 C0 0.67 0 0.34 0 0 Z " fill="#8C71D0" transform="translate(88,113)"/>
<path d="M0 0 C0.66 0 1.32 0 2 0 C3.42778133 4.51953547 4.85185014 9.04021722 6.27246094 13.56201172 C6.75646219 15.1007459 7.2414841 16.63915941 7.72753906 18.17724609 C8.42520154 20.38556141 9.11920929 22.59499638 9.8125 24.8046875 C10.14060669 25.83914505 10.14060669 25.83914505 10.4753418 26.89450073 C12 31.77225659 12 31.77225659 12 34 C12.66 34 13.32 34 14 34 C14 34.66 14 35.32 14 36 C12.7934375 36.3403125 12.7934375 36.3403125 11.5625 36.6875 C10.716875 37.120625 9.87125 37.55375 9 38 C8.10613836 40.54775306 8.10613836 40.54775306 8 43 C5.77174356 40.77174356 5.30760631 39.34238372 4.375 36.375 C4.11460938 35.55773437 3.85421875 34.74046875 3.5859375 33.8984375 C3.39257812 33.27195313 3.19921875 32.64546875 3 32 C2.34 32 1.68 32 1 32 C0.01 28.7 -0.98 25.4 -2 22 C-2.33 30.58 -2.66 39.16 -3 48 C-3.33 48 -3.66 48 -4 48 C-4 37.77 -4 27.54 -4 17 C-3.34 16.67 -2.68 16.34 -2 16 C-2.02320312 15.43152344 -2.04640625 14.86304688 -2.0703125 14.27734375 C-2.19191688 9.07441352 -1.67723492 4.92687757 0 0 Z " fill="#C271BF" transform="translate(102,43)"/>
<path d="M0 0 C9.20540004 -0.06946382 18.41071008 -0.12279271 27.61631489 -0.15543652 C31.89070699 -0.17110272 36.16491998 -0.1923582 40.43920898 -0.22631836 C44.56297253 -0.25887809 48.68656363 -0.27684582 52.81044579 -0.28463173 C54.38495792 -0.29018136 55.95946045 -0.30101831 57.53389931 -0.31719017 C59.73675672 -0.33892005 61.93889862 -0.34196888 64.1418457 -0.34057617 C66.02381401 -0.35056892 66.02381401 -0.35056892 67.94380188 -0.36076355 C71 0 71 0 72.66846466 1.28882599 C74.97399495 4.25169404 74.38786348 7.90917882 74.34057617 11.51049805 C74.34123329 12.81325684 74.34123329 12.81325684 74.34190369 14.14233398 C74.33981212 17.01569019 74.31646374 19.88846436 74.29296875 22.76171875 C74.28737411 24.75282981 74.28310339 26.74394499 74.28010559 28.73506165 C74.26864648 33.9778278 74.23917005 39.22034497 74.20599365 44.4630127 C74.17531579 49.81189607 74.16160514 55.16081965 74.14648438 60.50976562 C74.11430144 71.00661987 74.06309214 81.50328923 74 92 C72.02 92.99 72.02 92.99 70 94 C70 93.34 70 92.68 70 92 C70.66 92 71.32 92 72 92 C72.02312241 80.54349984 72.04091457 69.08700519 72.05181217 57.63048649 C72.05704122 52.31134787 72.06413927 46.99222516 72.07543945 41.6730957 C72.08626755 36.54436015 72.09227667 31.41563994 72.09487724 26.28689384 C72.09673163 24.32558386 72.10035251 22.36427476 72.10573006 20.40297127 C72.11293946 17.66584553 72.11399099 14.92878403 72.11352539 12.19165039 C72.1189183 10.96274582 72.1189183 10.96274582 72.12442017 9.70901489 C72.465555 6.05496562 72.465555 6.05496562 71 3 C68.55542223 2.94887158 66.13140698 2.96079571 63.6875 3 C53.72263597 3.07862022 43.77249397 2.83644119 33.8125 2.5625 C33.05335297 2.54276123 32.29420593 2.52302246 31.51205444 2.50268555 C20.98947021 2.22709979 10.50111207 1.72707555 0 1 C0 0.67 0 0.34 0 0 Z " fill="#806AD5" transform="translate(112,17)"/>
<path d="M0 0 C0.66 0.99 1.32 1.98 2 3 C4.86748316 3.47910061 4.86748316 3.47910061 8.28564453 3.43237305 C8.92967224 3.4425647 9.57369995 3.45275635 10.23724365 3.46325684 C12.36918725 3.49348761 14.50068236 3.50266751 16.6328125 3.51171875 C18.10970566 3.52855809 19.58658442 3.54670732 21.06344604 3.56611633 C24.95305889 3.61370399 28.84261339 3.64345625 32.73242188 3.66955566 C36.70063811 3.69931729 40.66865308 3.74586257 44.63671875 3.79101562 C52.4243795 3.87714827 60.21205472 3.94444879 68 4 C68 4.33 68 4.66 68 5 C66.94941406 5.06058594 65.89882812 5.12117188 64.81640625 5.18359375 C63.39843032 5.26810887 61.98046198 5.35275116 60.5625 5.4375 C59.53092773 5.49647461 59.53092773 5.49647461 58.47851562 5.55664062 C54.83882697 5.77671482 51.23618259 6.07882383 47.6171875 6.52734375 C42.59326128 7.10588271 37.61520845 7.15025903 32.5625 7.125 C31.61616699 7.12306641 30.66983398 7.12113281 29.69482422 7.11914062 C20.7755731 7.0654012 11.89625361 6.61504963 3 6 C2.67 6.99 2.34 7.98 2 9 C-0.475 8.01 -0.475 8.01 -3 7 C-2.01 6.67 -1.02 6.34 0 6 C0 4.02 0 2.04 0 0 Z M-7 8 C-4.6875 7.8125 -4.6875 7.8125 -2 8 C-1.29554497 8.73825516 -1.29554497 8.73825516 -0.57685852 9.49142456 C1.77942729 11.74567557 4.16621626 11.32802771 7.28462219 11.3142395 C8.12526718 11.29561859 8.96591217 11.27699768 9.83203125 11.2578125 C11.13608162 11.24788773 11.13608162 11.24788773 12.46647644 11.23776245 C15.24884282 11.21434388 18.03041725 11.17066702 20.8125 11.125 C23.583777 11.08984434 26.35500446 11.05900887 29.12638855 11.03366089 C30.85051392 11.01679995 32.57459318 10.99375533 34.29853821 10.96365356 C38.66207175 10.90979959 42.70123972 11.11209485 47 12 C47 12.33 47 12.66 47 13 C39.9525442 13.07602812 32.90519406 13.12859061 25.85742188 13.16479492 C23.45959521 13.17988682 21.06179617 13.2003625 18.6640625 13.22631836 C15.21868067 13.26268311 11.77366363 13.27972248 8.328125 13.29296875 C7.25508118 13.30845261 6.18203735 13.32393646 5.07647705 13.33988953 C4.07574158 13.34011612 3.0750061 13.34034271 2.04394531 13.34057617 C1.16458313 13.34723801 0.28522095 13.35389984 -0.62078857 13.36076355 C-3.50791284 12.92298438 -4.89944832 11.99951166 -7 10 C-7 9.34 -7 8.68 -7 8 Z " fill="#D474B1" transform="translate(44,99)"/>
<path d="M0 0 C3.375 -0.125 3.375 -0.125 7 0 C9 2 9 2 9.1953125 3.9453125 C9.13020833 5.96354167 9.06510417 7.98177083 9 10 C7.02 10.33 5.04 10.66 3 11 C3 34.76 3 58.52 3 83 C2.67 83 2.34 83 2 83 C2 57.59 2 32.18 2 6 C-3.28 6 -8.56 6 -14 6 C-14 5.67 -14 5.34 -14 5 C-9.05 4.67 -4.1 4.34 1 4 C0.67 2.68 0.34 1.36 0 0 Z " fill="#7969ED" transform="translate(176,19)"/>
<path d="M0 0 C0.70269516 -0.00043808 1.40539032 -0.00087616 2.12937927 -0.00132751 C4.45087518 0.0007617 6.77164791 0.02409798 9.09301758 0.04760742 C10.70298366 0.05320293 12.31295484 0.05747324 13.92292786 0.06047058 C18.1595979 0.07192299 22.39595922 0.10139339 26.63250732 0.13458252 C30.95589013 0.16527498 35.27932284 0.17897414 39.6027832 0.1940918 C48.08534672 0.22626288 56.56765937 0.27746379 65.05004883 0.34057617 C65.05004883 1.00057617 65.05004883 1.66057617 65.05004883 2.34057617 C64.24075928 2.33533936 63.43146973 2.33010254 62.59765625 2.32470703 C42.72093847 2.16917184 42.72093847 2.16917184 22.8671875 2.98925781 C18.60460202 3.26222659 14.38465276 3.35471037 10.11254883 3.30151367 C8.60047852 3.28314453 8.60047852 3.28314453 7.05786133 3.2644043 C5.09404962 3.23252424 3.13039461 3.18753793 1.16723633 3.12768555 C0.28293945 3.11286133 -0.60135742 3.09803711 -1.51245117 3.08276367 C-2.29749023 3.06068848 -3.0825293 3.03861328 -3.89135742 3.01586914 C-6.46360818 3.42159655 -7.32307465 4.36610422 -8.94995117 6.34057617 C-9.27995117 5.35057617 -9.60995117 4.36057617 -9.94995117 3.34057617 C-7.23224287 -0.43063958 -4.41519862 -0.02311622 0 0 Z " fill="#C17CB8" transform="translate(46.949951171875,16.659423828125)"/>
<path d="M0 0 C3.30660772 1.78735552 4.78690147 3.37402306 6 6.9375 C6.7385426 9.94848137 7.41136997 12.95635202 8 16 C8.66 16 9.32 16 10 16 C10 16.66 10 17.32 10 18 C8.7934375 18.3403125 8.7934375 18.3403125 7.5625 18.6875 C6.716875 19.120625 5.87125 19.55375 5 20 C4.10613836 22.54775306 4.10613836 22.54775306 4 25 C-0.61104173 20.38895827 -2.73814404 13.41547099 -3 7 C-2.34 6.34 -1.68 5.68 -1 5 C-0.35232207 2.42938689 -0.35232207 2.42938689 0 0 Z " fill="#C468CD" transform="translate(106,61)"/>
<path d="M0 0 C1.62122772 0.00033989 1.62122772 0.00033989 3.27520752 0.00068665 C4.43574646 0.0161705 5.5962854 0.03165436 6.79199219 0.04760742 C7.98491882 0.05185226 9.17784546 0.05609711 10.40692139 0.06047058 C14.21779938 0.07726594 18.02814897 0.114921 21.83886719 0.15307617 C24.42219288 0.16812184 27.00552687 0.18181045 29.58886719 0.1940918 C35.92238087 0.22717236 42.25558628 0.27738093 48.58886719 0.34057617 C49.65136719 2.15307617 49.65136719 2.15307617 50.58886719 4.34057617 C50.25886719 5.33057617 49.92886719 6.32057617 49.58886719 7.34057617 C49.33000732 6.52564697 49.07114746 5.71071777 48.80444336 4.87109375 C46.88704294 2.1624949 46.88704294 2.1624949 44.3409729 1.89364624 C41.26327782 1.75975098 38.21951686 1.78004519 35.13964844 1.85229492 C34.01189499 1.85936966 32.88414154 1.8664444 31.72221375 1.87373352 C28.1145946 1.90175765 24.50851847 1.96451509 20.90136719 2.02807617 C18.4580302 2.05314848 16.01466893 2.0759635 13.57128906 2.09643555 C7.57662056 2.15161069 1.58285408 2.23531801 -4.41113281 2.34057617 C-5.07113281 3.66057617 -5.73113281 4.98057617 -6.41113281 6.34057617 C11.73886719 6.67057617 29.88886719 7.00057617 48.58886719 7.34057617 C48.58886719 7.67057617 48.58886719 8.00057617 48.58886719 8.34057617 C41.19153852 8.36372333 33.79421764 8.3815034 26.39686012 8.39238834 C22.96215157 8.39761196 19.52746775 8.40470019 16.09277344 8.41601562 C12.14616184 8.42893652 8.19956034 8.43380869 4.25292969 8.43823242 C3.01644684 8.44339371 1.77996399 8.44855499 0.50601196 8.45387268 C-1.20553574 8.45398598 -1.20553574 8.45398598 -2.95166016 8.45410156 C-3.95981781 8.45632217 -4.96797546 8.45854279 -6.00668335 8.46083069 C-8.41113281 8.34057617 -8.41113281 8.34057617 -10.41113281 7.34057617 C-10.04982967 4.72112842 -9.65010047 3.56650283 -7.70245361 1.72514343 C-4.90747441 0.03623252 -3.25011212 -0.02278116 0 0 Z " fill="#A46CC0" transform="translate(90.4111328125,126.659423828125)"/>
<path d="M0 0 C5.28 0 10.56 0 16 0 C16 15.84 16 31.68 16 48 C15.67 48 15.34 48 15 48 C14.97494385 46.99211426 14.9498877 45.98422852 14.92407227 44.94580078 C14.82902242 41.16233258 14.72905096 37.37900694 14.62768555 33.59570312 C14.58470178 31.96650557 14.54300576 30.33727346 14.50268555 28.70800781 C14.23598116 16.69821495 14.23598116 16.69821495 13.10131836 4.74560547 C13 3 13 3 14 1 C10.7 1.33 7.4 1.66 4 2 C4 2.66 4 3.32 4 4 C3.01 4.66 2.02 5.32 1 6 C0.95615553 7.66608987 0.9603287 9.33380554 1 11 C0 13.3125 0 13.3125 -1 15 C-1.99 15 -2.98 15 -4 15 C-3.52229477 13.06213915 -3.04278429 11.12472326 -2.5625 9.1875 C-2.29566406 8.10855469 -2.02882813 7.02960937 -1.75390625 5.91796875 C-1.23922588 3.9259157 -0.65062825 1.95188476 0 0 Z " fill="#9370C5" transform="translate(125,43)"/>
<path d="M0 0 C0.66 0.33 1.32 0.66 2 1 C2.02705729 2.77074917 2.04642195 4.54161711 2.0625 6.3125 C2.07410156 7.29863281 2.08570313 8.28476563 2.09765625 9.30078125 C2 12 2 12 1 15 C0.34 15 -0.32 15 -1 15 C-1 15.66 -1 16.32 -1 17 C-2.32 17 -3.64 17 -5 17 C-5.495 15.515 -5.495 15.515 -6 14 C-5.34 14 -4.68 14 -4 14 C-4 14.66 -4 15.32 -4 16 C-3.34 16 -2.68 16 -2 16 C-2.495 14.515 -2.495 14.515 -3 13 C-3.99 13 -4.98 13 -6 13 C-6.495 12.01 -6.495 12.01 -7 11 C-7.969375 11.08378906 -8.93875 11.16757813 -9.9375 11.25390625 C-19.74178484 12.0244895 -29.20716882 11.84645482 -39 11 C-39 10.67 -39 10.34 -39 10 C-27.12 9.67 -15.24 9.34 -3 9 C-2.01 6.03 -1.02 3.06 0 0 Z " fill="#7C68F1" transform="translate(183,94)"/>
<path d="M0 0 C0.66 0.33 1.32 0.66 2 1 C2.9742048 5.18197105 3.11803875 9.21186268 3.09765625 13.4921875 C3.09443359 14.69101563 3.09121094 15.88984375 3.08789062 17.125 C3.07951172 18.3625 3.07113281 19.6 3.0625 20.875 C3.05798828 22.13570312 3.05347656 23.39640625 3.04882812 24.6953125 C3.0370796 27.79692386 3.02065167 30.89843725 3 34 C2.34 34 1.68 34 1 34 C0.67 24.76 0.34 15.52 0 6 C-0.66 7.98 -1.32 9.96 -2 12 C-2.33 12 -2.66 12 -3 12 C-3.33 9.69 -3.66 7.38 -4 5 C-3.34 5 -2.68 5 -2 5 C-2 3.68 -2 2.36 -2 1 C-1.34 0.67 -0.68 0.34 0 0 Z " fill="#9B6CC7" transform="translate(129,57)"/>
<path d="M0 0 C3.45075621 2.66649344 4.04194473 5.87299268 5 10 C5 10.99 5 11.98 5 13 C8.3 13.33 11.6 13.66 15 14 C15.33 12.35 15.66 10.7 16 9 C16.33 9.99 16.66 10.98 17 12 C16.34 13.32 15.68 14.64 15 16 C11.37 16 7.74 16 4 16 C3.32815382 13.89748139 2.66269032 11.79292237 2 9.6875 C1.443125 7.92986328 1.443125 7.92986328 0.875 6.13671875 C0 3 0 3 0 0 Z " fill="#B371BD" transform="translate(104,75)"/>
<path d="M0 0 C0.33 0.66 0.66 1.32 1 2 C2.0058313 1.74875366 2.0058313 1.74875366 3.03198242 1.49243164 C6.59251115 0.90169491 9.88071538 0.9917388 13.48828125 1.12109375 C14.19147995 1.14470474 14.89467865 1.16831573 15.6191864 1.19264221 C17.85052072 1.2688093 20.081466 1.35303307 22.3125 1.4375 C23.83136159 1.49076782 25.3502418 1.54350785 26.86914062 1.59570312 C30.57966209 1.7243599 34.28987824 1.86024057 38 2 C38 2.33 38 2.66 38 3 C24.8 3 11.6 3 -2 3 C-2.33 4.32 -2.66 5.64 -3 7 C-3.66 5.35 -4.32 3.7 -5 2 C-3.35 1.34 -1.7 0.68 0 0 Z " fill="#CB79AF" transform="translate(47,23)"/>
<path d="M0 0 C1.13917374 0.00666183 1.13917374 0.00666183 2.30136108 0.01345825 C3.59247299 0.01368484 3.59247299 0.01368484 4.90966797 0.01391602 C5.83991791 0.02423859 6.77016785 0.03456116 7.72860718 0.04519653 C8.68020721 0.04802643 9.63180725 0.05085632 10.61224365 0.05377197 C13.6589706 0.06498914 16.70540621 0.09009641 19.75204468 0.11550903 C21.81454044 0.12553685 23.8770408 0.13466304 25.93954468 0.14285278 C31.00215735 0.16493349 36.06455158 0.19947374 41.12704468 0.24050903 C41.12704468 0.57050903 41.12704468 0.90050903 41.12704468 1.24050903 C38.41902795 1.41562328 35.71108077 1.58237544 33.00204468 1.74050903 C31.74520874 1.81422729 31.74520874 1.81422729 30.46298218 1.88943481 C25.65818903 2.14292298 20.88400576 2.26165003 16.07235718 2.20144653 C15.08122925 2.18920044 14.09010132 2.17695435 13.06893921 2.16433716 C11.12954327 2.13214801 9.19031402 2.08687743 7.2515564 2.02761841 C5.9214856 2.00538208 5.9214856 2.00538208 4.56454468 1.98269653 C3.77950562 1.96062134 2.99446655 1.93854614 2.18563843 1.915802 C-0.38661233 2.32152941 -1.2460788 3.26603708 -2.87295532 5.24050903 C-3.20295532 4.25050903 -3.53295532 3.26050903 -3.87295532 2.24050903 C-1.87295532 0.24050903 -1.87295532 0.24050903 0 0 Z " fill="#DA70B8" transform="translate(40.872955322265625,17.759490966796875)"/>
<path d="M0 0 C2.475 0.99 2.475 0.99 5 2 C4.67 2.66 4.34 3.32 4 4 C3.34 4 2.68 4 2 4 C2 5.32 2 6.64 2 8 C1.34 8 0.68 8 0 8 C-0.33 8.99 -0.66 9.98 -1 11 C-1.66 11 -2.32 11 -3 11 C-3.66 8.69 -4.32 6.38 -5 4 C-3.68 4 -2.36 4 -1 4 C-0.67 2.68 -0.34 1.36 0 0 Z " fill="#B067DC" transform="translate(125,54)"/>
<path d="M0 0 C1.61648437 0.04060547 1.61648437 0.04060547 3.265625 0.08203125 C4.08546875 0.11683594 4.9053125 0.15164062 5.75 0.1875 C5.75 0.5175 5.75 0.8475 5.75 1.1875 C4.59371094 1.22617188 4.59371094 1.22617188 3.4140625 1.265625 C2.41117188 1.32234375 1.40828125 1.3790625 0.375 1.4375 C-0.62273437 1.48390625 -1.62046875 1.5303125 -2.6484375 1.578125 C-5.4026477 1.90910885 -5.4026477 1.90910885 -6.6015625 4.234375 C-6.81554687 4.87890625 -7.02953125 5.5234375 -7.25 6.1875 C-4.61 6.5175 -1.97 6.8475 0.75 7.1875 C0.75 7.5175 0.75 7.8475 0.75 8.1875 C-0.87490954 8.21448189 -2.49994633 8.23388757 -4.125 8.25 C-5.48238281 8.26740234 -5.48238281 8.26740234 -6.8671875 8.28515625 C-9.25 8.1875 -9.25 8.1875 -11.25 7.1875 C-10.89354476 4.60319949 -10.47873858 3.41192276 -8.59375 1.5625 C-5.55847249 -0.21819614 -3.49290545 -0.11389909 0 0 Z " fill="#BC70B9" transform="translate(91.25,126.8125)"/>
<path d="M0 0 C1.32 0 2.64 0 4 0 C4.33 1.32 4.66 2.64 5 4 C2.34771188 5.07525194 -0.28368454 6.09456151 -3 7 C-2.25 2.25 -2.25 2.25 0 0 Z " fill="#F171A5" transform="translate(19,130)"/>
<path d="M0 0 C0.66 0.33 1.32 0.66 2 1 C2 1.66 2 2.32 2 3 C1.01 2.67 0.02 2.34 -1 2 C-0.67 1.34 -0.34 0.68 0 0 Z M-3 4 C-2.34 4.33 -1.68 4.66 -1 5 C-0.79859524 8.62528568 -1.14223235 10.86501708 -3 14 C-3.99 14 -4.98 14 -6 14 C-5.69201674 12.51988629 -5.378482 11.04092675 -5.0625 9.5625 C-4.88847656 8.73878906 -4.71445313 7.91507813 -4.53515625 7.06640625 C-4 5 -4 5 -3 4 Z " fill="#A86DD1" transform="translate(127,44)"/>
<path d="M0 0 C0.99 0 1.98 0 3 0 C5.42857143 6.28571429 5.42857143 6.28571429 4 10 C3.54625 9.505 3.0925 9.01 2.625 8.5 C1.12364481 6.77390663 1.12364481 6.77390663 -1 7 C-0.67 4.69 -0.34 2.38 0 0 Z " fill="#B96FC3" transform="translate(108,66)"/>
<path d="M0 0 C2.10388569 -0.05402274 4.20816714 -0.09280256 6.3125 -0.125 C8.07013672 -0.15980469 8.07013672 -0.15980469 9.86328125 -0.1953125 C13 0 13 0 16 2 C16.6875 4.125 16.6875 4.125 17 6 C14.525 5.01 14.525 5.01 12 4 C12 3.34 12 2.68 12 2 C11.38511719 2.02320312 10.77023438 2.04640625 10.13671875 2.0703125 C8.92435547 2.09738281 8.92435547 2.09738281 7.6875 2.125 C6.88699219 2.14820312 6.08648437 2.17140625 5.26171875 2.1953125 C3 2 3 2 0 0 Z " fill="#8665E8" transform="translate(173,114)"/>
<path d="M0 0 C0.33 0.66 0.66 1.32 1 2 C2.65 1.67 4.3 1.34 6 1 C6.33 1.66 6.66 2.32 7 3 C4.03 3 1.06 3 -2 3 C-2.33 4.32 -2.66 5.64 -3 7 C-3.66 5.35 -4.32 3.7 -5 2 C-3.35 1.34 -1.7 0.68 0 0 Z " fill="#E173A7" transform="translate(47,23)"/>
<path d="M0 0 C1.09054688 0.02320312 2.18109375 0.04640625 3.3046875 0.0703125 C4.40039062 0.08835937 5.49609375 0.10640625 6.625 0.125 C7.46804687 0.14820312 8.31109375 0.17140625 9.1796875 0.1953125 C6.47864013 1.69459798 5.29921401 2.19775182 2.1171875 2.1328125 C-0.83803034 1.89791586 -0.83803034 1.89791586 -2.6953125 3.6953125 C-3.0665625 4.1903125 -3.4378125 4.6853125 -3.8203125 5.1953125 C-4.1503125 4.2053125 -4.4803125 3.2153125 -4.8203125 2.1953125 C-2.8203125 0.1953125 -2.8203125 0.1953125 0 0 Z " fill="#EC73AA" transform="translate(41.8203125,17.8046875)"/>
<path d="M0 0 C0 3.65859288 -1.27753524 4.94596639 -3.62109375 7.63671875 C-5.25187385 9.24901975 -6.85164149 10.20431166 -9 11 C-7.59155282 7.78475695 -5.89655214 5.67816132 -3.375 3.25 C-2.74335938 2.63640625 -2.11171875 2.0228125 -1.4609375 1.390625 C-0.73777344 0.70226562 -0.73777344 0.70226562 0 0 Z " fill="#DD76A6" transform="translate(30,120)"/>
<path d="M0 0 C0.93423645 3.01031744 1.04449911 3.86650268 0 7 C-1.65 6.67 -3.3 6.34 -5 6 C-3.35 4.02 -1.7 2.04 0 0 Z " fill="#F46BAF" transform="translate(31,121)"/>
<path d="M0 0 C0.33 0 0.66 0 1 0 C0.85904936 1.6254308 0.71207913 3.25034051 0.5625 4.875 C0.48128906 5.77992187 0.40007812 6.68484375 0.31640625 7.6171875 C0 10 0 10 -1 12 C-1.66 12 -2.32 12 -3 12 C-2.68950274 10.56206608 -2.3765224 9.1246682 -2.0625 7.6875 C-1.88847656 6.88699219 -1.71445313 6.08648437 -1.53515625 5.26171875 C-1 3 -1 3 0 0 Z " fill="#A66FBD" transform="translate(118,65)"/>
<path d="M0 0 C0.66 0 1.32 0 2 0 C2 1.98 2 3.96 2 6 C0.35 6 -1.3 6 -3 6 C-3 5.34 -3 4.68 -3 4 C-2.34 4 -1.68 4 -1 4 C-0.67 2.68 -0.34 1.36 0 0 Z " fill="#A066DF" transform="translate(142,130)"/>
<path d="M0 0 C1.32 0 2.64 0 4 0 C4.33 1.32 4.66 2.64 5 4 C3.68 4.33 2.36 4.66 1 5 C0.67 3.35 0.34 1.7 0 0 Z " fill="#F866B0" transform="translate(19,130)"/>
<path d="M0 0 C2 4 2 4 1.75 6.1875 C1 8 1 8 -1 9 C-0.67 6.03 -0.34 3.06 0 0 Z " fill="#AA70CE" transform="translate(120,59)"/>
</svg>
